<svg width="20" height="20" viewBox="0 0 20 20" fill="none" xmlns="http://www.w3.org/2000/svg">
<path id="account_circle" d="M4.1291 14.8682C4.94047 14.2478 5.84728 13.7586 6.84956 13.4006C7.85183 13.0427 8.90183 12.8637 9.99956 12.8637C11.0973 12.8637 12.1473 13.0427 13.1496 13.4006C14.1518 13.7586 15.0586 14.2478 15.87 14.8682C16.4268 14.216 16.8604 13.4762 17.1706 12.6489C17.4808 11.8216 17.6359 10.9387 17.6359 10C17.6359 7.88414 16.8922 6.08243 15.4047 4.59493C13.9172 3.10743 12.1155 2.36368 9.99956 2.36368C7.88365 2.36368 6.08194 3.10743 4.59444 4.59493C3.10694 6.08243 2.36319 7.88414 2.36319 10C2.36319 10.9387 2.51831 11.8216 2.82853 12.6489C3.13876 13.4762 3.57228 14.216 4.1291 14.8682ZM9.99956 10.9546C9.06092 10.9546 8.26944 10.6324 7.62512 9.98811C6.98081 9.34379 6.65865 8.55232 6.65865 7.61368C6.65865 6.67504 6.98081 5.88357 7.62512 5.23925C8.26944 4.59493 9.06092 4.27277 9.99956 4.27277C10.9382 4.27277 11.7297 4.59493 12.374 5.23925C13.0183 5.88357 13.3405 6.67504 13.3405 7.61368C13.3405 8.55232 13.0183 9.34379 12.374 9.98811C11.7297 10.6324 10.9382 10.9546 9.99956 10.9546ZM9.99956 19.5455C8.6791 19.5455 7.43819 19.2949 6.27683 18.7938C5.11547 18.2927 4.10524 17.6125 3.24615 16.7535C2.38706 15.8944 1.70694 14.8841 1.20581 13.7228C0.70467 12.5614 0.454102 11.3205 0.454102 10C0.454102 8.67959 0.70467 7.43868 1.20581 6.27732C1.70694 5.11595 2.38706 4.10573 3.24615 3.24664C4.10524 2.38754 5.11547 1.70743 6.27683 1.20629C7.43819 0.705158 8.6791 0.45459 9.99956 0.45459C11.32 0.45459 12.5609 0.705158 13.7223 1.20629C14.8836 1.70743 15.8939 2.38754 16.753 3.24664C17.6121 4.10573 18.2922 5.11595 18.7933 6.27732C19.2944 7.43868 19.545 8.67959 19.545 10C19.545 11.3205 19.2944 12.5614 18.7933 13.7228C18.2922 14.8841 17.6121 15.8944 16.753 16.7535C15.8939 17.6125 14.8836 18.2927 13.7223 18.7938C12.5609 19.2949 11.32 19.5455 9.99956 19.5455Z" fill="#0A0A0A"/>
</svg>
