<svg width="20" height="20" viewBox="0 0 20 20" fill="none" xmlns="http://www.w3.org/2000/svg">
<g id="distance">
<mask id="mask0_261_1524" style="mask-type:alpha" maskUnits="userSpaceOnUse" x="0" y="0" width="20" height="20">
<rect id="Bounding box" width="20" height="20" fill="#D9D9D9"/>
</mask>
<g mask="url(#mask0_261_1524)">
<path id="distance_2" d="M10 17.2857C8.7381 17.2857 7.70833 17.0863 6.91071 16.6875C6.1131 16.2887 5.71429 15.7738 5.71429 15.1429C5.71429 14.8571 5.8006 14.5923 5.97321 14.3482C6.14583 14.1042 6.3869 13.8929 6.69643 13.7143L7.82143 14.7679C7.71429 14.8155 7.59821 14.869 7.47321 14.9286C7.34821 14.9881 7.25 15.0595 7.17857 15.1429C7.33333 15.3333 7.69048 15.5 8.25 15.6429C8.80952 15.7857 9.39286 15.8571 10 15.8571C10.6071 15.8571 11.1935 15.7857 11.7589 15.6429C12.3244 15.5 12.6845 15.3333 12.8393 15.1429C12.756 15.0476 12.6488 14.9702 12.5179 14.9107C12.3869 14.8512 12.2619 14.7976 12.1429 14.75L13.25 13.6786C13.5833 13.869 13.8393 14.0863 14.0179 14.3304C14.1964 14.5744 14.2857 14.8452 14.2857 15.1429C14.2857 15.7738 13.8869 16.2887 13.0893 16.6875C12.2917 17.0863 11.2619 17.2857 10 17.2857ZM10.0179 13.3571C11.1964 12.4881 12.0833 11.6161 12.6786 10.7411C13.2738 9.86607 13.5714 8.98809 13.5714 8.10714C13.5714 6.89286 13.1845 5.97619 12.4107 5.35714C11.6369 4.7381 10.8333 4.42857 10 4.42857C9.16667 4.42857 8.3631 4.7381 7.58929 5.35714C6.81548 5.97619 6.42857 6.89286 6.42857 8.10714C6.42857 8.90476 6.72024 9.73512 7.30357 10.5982C7.8869 11.4613 8.79167 12.381 10.0179 13.3571ZM10 15.1429C8.32143 13.9048 7.06845 12.7024 6.24107 11.5357C5.41369 10.369 5 9.22619 5 8.10714C5 7.2619 5.15179 6.52083 5.45536 5.88393C5.75893 5.24702 6.14881 4.71429 6.625 4.28571C7.10119 3.85714 7.6369 3.53571 8.23214 3.32143C8.82738 3.10714 9.41667 3 10 3C10.5833 3 11.1726 3.10714 11.7679 3.32143C12.3631 3.53571 12.8988 3.85714 13.375 4.28571C13.8512 4.71429 14.2411 5.24702 14.5446 5.88393C14.8482 6.52083 15 7.2619 15 8.10714C15 9.22619 14.5863 10.369 13.7589 11.5357C12.9315 12.7024 11.6786 13.9048 10 15.1429ZM10 9.42857C10.3929 9.42857 10.7292 9.28869 11.0089 9.00893C11.2887 8.72917 11.4286 8.39286 11.4286 8C11.4286 7.60714 11.2887 7.27083 11.0089 6.99107C10.7292 6.71131 10.3929 6.57143 10 6.57143C9.60714 6.57143 9.27083 6.71131 8.99107 6.99107C8.71131 7.27083 8.57143 7.60714 8.57143 8C8.57143 8.39286 8.71131 8.72917 8.99107 9.00893C9.27083 9.28869 9.60714 9.42857 10 9.42857Z" fill="#1C1B1F"/>
</g>
</g>
</svg>
