<svg width="14" height="18" viewBox="0 0 14 18" fill="none" xmlns="http://www.w3.org/2000/svg">
<path id="notifications" d="M1.16683 14.8334C0.930718 14.8334 0.732802 14.7536 0.573079 14.5938C0.413357 14.4341 0.333496 14.2362 0.333496 14.0001C0.333496 13.764 0.413357 13.5661 0.573079 13.4063C0.732802 13.2466 0.930718 13.1667 1.16683 13.1667H2.00016V7.33341C2.00016 6.18064 2.34738 5.15633 3.04183 4.2605C3.73627 3.36466 4.63905 2.77786 5.75016 2.50008V1.91675C5.75016 1.56953 5.87169 1.27439 6.11475 1.03133C6.3578 0.788276 6.65294 0.666748 7.00016 0.666748C7.34738 0.666748 7.64252 0.788276 7.88558 1.03133C8.12863 1.27439 8.25016 1.56953 8.25016 1.91675V2.50008C9.36127 2.77786 10.2641 3.36466 10.9585 4.2605C11.6529 5.15633 12.0002 6.18064 12.0002 7.33341V13.1667H12.8335C13.0696 13.1667 13.2675 13.2466 13.4272 13.4063C13.587 13.5661 13.6668 13.764 13.6668 14.0001C13.6668 14.2362 13.587 14.4341 13.4272 14.5938C13.2675 14.7536 13.0696 14.8334 12.8335 14.8334H1.16683ZM7.00016 17.3334C6.54183 17.3334 6.14947 17.1702 5.82308 16.8438C5.49669 16.5174 5.3335 16.1251 5.3335 15.6667H8.66683C8.66683 16.1251 8.50364 16.5174 8.17725 16.8438C7.85086 17.1702 7.4585 17.3334 7.00016 17.3334ZM3.66683 13.1667H10.3335V7.33341C10.3335 6.41675 10.0071 5.63203 9.35433 4.97925C8.70155 4.32647 7.91683 4.00008 7.00016 4.00008C6.0835 4.00008 5.29877 4.32647 4.646 4.97925C3.99322 5.63203 3.66683 6.41675 3.66683 7.33341V13.1667Z" fill="#090A1D"/>
</svg>
