<svg width="20" height="20" viewBox="0 0 20 20" fill="none" xmlns="http://www.w3.org/2000/svg">
<g id="schedule">
<mask id="mask0_261_1529" style="mask-type:alpha" maskUnits="userSpaceOnUse" x="0" y="0" width="20" height="20">
<rect id="Bounding box" width="20" height="20" fill="#D9D9D9"/>
</mask>
<g mask="url(#mask0_261_1529)">
<path id="schedule_2" d="M11.98 12.82L12.82 11.98L10.6 9.76V7H9.4V10.24L11.98 12.82ZM10 16C9.17 16 8.39 15.8425 7.66 15.5275C6.93 15.2125 6.295 14.785 5.755 14.245C5.215 13.705 4.7875 13.07 4.4725 12.34C4.1575 11.61 4 10.83 4 10C4 9.17 4.1575 8.39 4.4725 7.66C4.7875 6.93 5.215 6.295 5.755 5.755C6.295 5.215 6.93 4.7875 7.66 4.4725C8.39 4.1575 9.17 4 10 4C10.83 4 11.61 4.1575 12.34 4.4725C13.07 4.7875 13.705 5.215 14.245 5.755C14.785 6.295 15.2125 6.93 15.5275 7.66C15.8425 8.39 16 9.17 16 10C16 10.83 15.8425 11.61 15.5275 12.34C15.2125 13.07 14.785 13.705 14.245 14.245C13.705 14.785 13.07 15.2125 12.34 15.5275C11.61 15.8425 10.83 16 10 16ZM10 14.8C11.33 14.8 12.4625 14.3325 13.3975 13.3975C14.3325 12.4625 14.8 11.33 14.8 10C14.8 8.67 14.3325 7.5375 13.3975 6.6025C12.4625 5.6675 11.33 5.2 10 5.2C8.67 5.2 7.5375 5.6675 6.6025 6.6025C5.6675 7.5375 5.2 8.67 5.2 10C5.2 11.33 5.6675 12.4625 6.6025 13.3975C7.5375 14.3325 8.67 14.8 10 14.8Z" fill="#1C1B1F"/>
</g>
</g>
</svg>
