<svg width="20" height="20" viewBox="0 0 20 20" fill="none" xmlns="http://www.w3.org/2000/svg">
<g id="search_check_2">
<mask id="mask0_248_1284" style="mask-type:alpha" maskUnits="userSpaceOnUse" x="0" y="0" width="20" height="20">
<rect id="Bounding box" width="20" height="20" fill="#D9D9D9"/>
</mask>
<g mask="url(#mask0_248_1284)">
<path id="search_check_2_2" d="M8.33366 13.3334C9.72255 13.3334 10.9031 12.8473 11.8753 11.8751C12.8475 10.9029 13.3337 9.7223 13.3337 8.33341C13.3337 6.94453 12.8475 5.76397 11.8753 4.79175C10.9031 3.81953 9.72255 3.33341 8.33366 3.33341C6.94477 3.33341 5.76421 3.81953 4.79199 4.79175C3.81977 5.76397 3.33366 6.94453 3.33366 8.33341C3.33366 9.7223 3.81977 10.9029 4.79199 11.8751C5.76421 12.8473 6.94477 13.3334 8.33366 13.3334ZM8.33366 15.0001C6.47255 15.0001 4.89616 14.3542 3.60449 13.0626C2.31283 11.7709 1.66699 10.1945 1.66699 8.33341C1.66699 6.4723 2.31283 4.89591 3.60449 3.60425C4.89616 2.31258 6.47255 1.66675 8.33366 1.66675C10.1948 1.66675 11.7712 2.31258 13.0628 3.60425C14.3545 4.89591 15.0003 6.4723 15.0003 8.33341C15.0003 9.11119 14.8788 9.84383 14.6357 10.5313C14.3927 11.2188 14.0489 11.8473 13.6045 12.4167L18.3337 17.1667L17.167 18.3334L12.417 13.6042C11.8475 14.0487 11.2191 14.3924 10.5316 14.6355C9.84408 14.8786 9.11144 15.0001 8.33366 15.0001Z" fill="#1C1B1F"/>
</g>
</g>
</svg>
