<svg width="18" height="14" viewBox="0 0 18 14" fill="none" xmlns="http://www.w3.org/2000/svg">
<path id="speed" d="M7.70695 9.91671C8.04028 10.25 8.47084 10.4132 8.99862 10.4063C9.52639 10.3993 9.91528 10.2084 10.1653 9.83337L14.832 2.83337L7.83195 7.50004C7.45695 7.75004 7.25903 8.13199 7.2382 8.64587C7.21737 9.15976 7.37362 9.58337 7.70695 9.91671ZM8.99862 0.333374C9.81806 0.333374 10.6063 0.447957 11.3632 0.677124C12.1201 0.906291 12.832 1.25004 13.4986 1.70837L11.9153 2.70837C11.457 2.47226 10.9813 2.29518 10.4882 2.17712C9.99514 2.05907 9.49862 2.00004 8.99862 2.00004C7.15139 2.00004 5.57848 2.64935 4.27987 3.94796C2.98126 5.24657 2.33195 6.81949 2.33195 8.66671C2.33195 9.25004 2.41181 9.82643 2.57153 10.3959C2.73126 10.9653 2.95695 11.5 3.24862 12H14.7486C15.0681 11.4723 15.3007 10.9237 15.4465 10.3542C15.5924 9.78476 15.6653 9.19449 15.6653 8.58337C15.6653 8.08337 15.6063 7.59726 15.4882 7.12504C15.3701 6.65282 15.1931 6.19449 14.957 5.75004L15.957 4.16671C16.3736 4.81949 16.7035 5.51393 16.9465 6.25004C17.1896 6.98615 17.3181 7.75004 17.332 8.54171C17.3458 9.33337 17.2556 10.0903 17.0611 10.8125C16.8667 11.5348 16.582 12.2223 16.207 12.875C16.0542 13.125 15.8458 13.3195 15.582 13.4584C15.3181 13.5973 15.0403 13.6667 14.7486 13.6667H3.24862C2.95695 13.6667 2.67917 13.5973 2.41528 13.4584C2.15139 13.3195 1.94306 13.125 1.79028 12.875C1.42917 12.25 1.15139 11.5868 0.95695 10.8855C0.762505 10.1841 0.665283 9.44448 0.665283 8.66671C0.665283 7.51393 0.884033 6.43407 1.32153 5.42712C1.75903 4.42018 2.35626 3.53823 3.1132 2.78129C3.87014 2.02435 4.75556 1.42712 5.76945 0.989624C6.78334 0.552124 7.85973 0.333374 8.99862 0.333374Z" fill="#09091C"/>
</svg>
